<?xml version="1.0" standalone="no"?>
<!DOCTYPE svg PUBLIC "-//W3C//DTD SVG 20010904//EN"
 "http://www.w3.org/TR/2001/REC-SVG-20010904/DTD/svg10.dtd">
<svg version="1.0" xmlns="http://www.w3.org/2000/svg"
 width="190.000000pt" height="190.000000pt" viewBox="0 0 190.000000 190.000000"
 preserveAspectRatio="xMidYMid meet">
<metadata>
Created by potrace 1.11, written by Peter Selinger 2001-2013
</metadata>
<g transform="translate(0.000000,190.000000) scale(0.100000,-0.100000)"
fill="#000000" stroke="none">
<path d="M0 950 l0 -950 950 0 950 0 0 146 c0 135 -1 146 -17 139 -10 -3 -43
-11 -73 -16 -30 -5 -88 -17 -127 -26 -63 -14 -87 -15 -184 -4 -62 6 -124 18
-138 26 -33 17 -74 58 -114 113 -17 23 -34 42 -37 42 -4 0 -46 -20 -94 -44
-94 -48 -212 -81 -257 -71 -58 13 -106 60 -150 149 -42 85 -42 86 -93 100 -28
7 -82 16 -120 20 -72 6 -158 29 -195 53 -2 1 12 17 32 35 36 34 57 88 57 146
l0 32 46 -47 c55 -56 64 -47 36 34 -33 96 -45 176 -40 280 7 156 39 193 132
154 80 -35 129 -22 88 22 -10 12 -22 34 -26 50 -5 22 -3 27 14 27 11 0 26 12
35 29 17 33 95 101 116 101 8 0 43 -9 79 -20 52 -17 69 -19 91 -10 34 14 56 4
122 -57 32 -30 54 -43 64 -39 17 7 63 -29 63 -49 0 -7 13 -28 30 -46 16 -19
39 -59 50 -89 25 -68 33 -83 49 -88 10 -3 11 12 5 69 -4 41 -8 82 -8 92 0 9
-4 17 -8 17 -14 0 -9 28 8 44 21 22 45 21 37 -1 -6 -15 -4 -16 9 -5 10 8 18 9
22 3 4 -6 8 -76 9 -156 3 -117 0 -148 -11 -154 -15 -9 -16 -20 -6 -137 11
-134 -43 -311 -115 -378 -17 -17 -31 -35 -31 -42 0 -23 95 -113 140 -133 56
-26 99 -26 328 -4 l183 18 -3 130 -3 130 -38 0 -38 0 40 36 41 35 0 263 0 264
-43 -7 c-23 -4 -58 -19 -77 -34 -19 -15 -46 -33 -60 -40 -15 -8 -37 -38 -54
-72 -16 -33 -34 -60 -40 -60 -21 0 -116 101 -140 148 -13 26 -27 66 -30 88 -8
48 -4 51 84 64 30 4 75 16 100 25 60 23 137 13 207 -24 l53 -29 0 329 0 329
-950 0 -950 0 0 -950z m1790 -443 c0 -24 37 -49 59 -42 33 10 25 -11 -13 -34
-55 -35 -66 -29 -66 34 0 30 5 55 10 55 6 0 10 -6 10 -13z"/>
<path d="M968 1236 c-75 -27 -166 -111 -144 -133 3 -3 22 8 43 25 21 16 69 44
106 61 42 19 67 35 65 43 -6 18 -27 19 -70 4z"/>
<path d="M635 1074 c-57 -25 -115 -68 -115 -86 0 -21 33 -18 63 4 33 25 92 58
140 77 15 6 27 15 27 21 0 18 -53 10 -115 -16z"/>
<path d="M963 964 c-3 -8 -1 -20 5 -26 16 -16 42 -2 42 22 0 24 -38 28 -47 4z"/>
<path d="M850 904 c0 -19 17 -79 30 -105 5 -9 4 -22 -1 -30 -5 -8 -9 -28 -9
-44 0 -29 2 -31 44 -33 32 -1 51 4 68 18 13 11 31 26 42 33 15 11 17 17 7 35
-14 26 -41 29 -41 5 0 -10 -9 -29 -20 -43 -16 -20 -22 -23 -37 -14 -10 6 -19
26 -21 45 -1 19 -6 41 -9 49 -4 8 -11 33 -17 54 -11 41 -36 61 -36 30z"/>
<path d="M763 883 c-7 -3 -13 -14 -13 -25 0 -14 6 -19 22 -16 13 2 24 10 26
19 3 18 -15 29 -35 22z"/>
<path d="M1015 620 c-16 -10 -42 -19 -57 -19 -32 -1 -64 -39 -47 -56 8 -7 13
-6 16 3 3 6 12 12 21 12 22 0 142 60 142 71 0 15 -43 9 -75 -11z"/>
</g>
</svg>
